<?xml version="1.0" encoding="UTF-8" standalone="no"?>
<!DOCTYPE svg PUBLIC "-//W3C//DTD SVG 1.1//EN"
 "http://www.w3.org/Graphics/SVG/1.1/DTD/svg11.dtd">
<!-- Generated by graphviz version 2.42.2 (20190918.1233)
 -->
<!-- Title: G Pages: 1 -->
<svg width="924pt" height="671pt"
 viewBox="0.00 0.00 923.54 671.08" xmlns="http://www.w3.org/2000/svg" xmlns:xlink="http://www.w3.org/1999/xlink">
<g id="graph0" class="graph" transform="scale(1 1) rotate(0) translate(4 667.08)">
<title>G</title>
<polygon fill="white" stroke="transparent" points="-4,4 -4,-667.08 919.54,-667.08 919.54,4 -4,4"/>
<!-- Start -->
<g id="node1" class="node">
<title>Start</title>
<ellipse fill="yellow" stroke="black" stroke-width="3" cx="253.54" cy="-635.78" rx="27.1" ry="27.1"/>
<text text-anchor="middle" x="253.54" y="-632.08" font-family="Times,serif" font-size="14.00">Start</text>
</g>
<!-- FirstDelim -->
<g id="node5" class="node">
<title>FirstDelim</title>
<ellipse fill="lightgrey" stroke="black" cx="253.54" cy="-539.48" rx="49.29" ry="18"/>
<text text-anchor="middle" x="253.54" y="-535.78" font-family="Times,serif" font-size="14.00">FirstDelim</text>
</g>
<!-- Start&#45;&gt;FirstDelim -->
<g id="edge1" class="edge">
<title>Start&#45;&gt;FirstDelim</title>
<path fill="none" stroke="black" d="M253.54,-608.26C253.54,-595.58 253.54,-580.41 253.54,-567.65"/>
<polygon fill="black" stroke="black" points="257.04,-567.6 253.54,-557.6 250.04,-567.6 257.04,-567.6"/>
<text text-anchor="middle" x="285.54" y="-579.28" font-family="Times,serif" font-size="14.00">ELEMENT</text>
</g>
<!-- Fail -->
<g id="node2" class="node">
<title>Fail</title>
<ellipse fill="red" stroke="black" stroke-width="3" cx="668.54" cy="-26.87" rx="24.9" ry="24.9"/>
<text text-anchor="middle" x="668.54" y="-23.17" font-family="Times,serif" font-size="14.00">Fail</text>
</g>
<!-- PassNC -->
<g id="node3" class="node">
<title>PassNC</title>
<ellipse fill="lightgreen" stroke="black" stroke-width="3" cx="73.54" cy="-428.61" rx="73.58" ry="26.74"/>
<text text-anchor="middle" x="73.54" y="-432.41" font-family="Times,serif" font-size="14.00">Pass</text>
<text text-anchor="middle" x="73.54" y="-417.41" font-family="Times,serif" font-size="14.00">(not compound)</text>
</g>
<!-- PassC -->
<g id="node4" class="node">
<title>PassC</title>
<ellipse fill="lightgreen" stroke="black" stroke-width="3" cx="367.54" cy="-26.87" rx="58.88" ry="26.74"/>
<text text-anchor="middle" x="367.54" y="-30.67" font-family="Times,serif" font-size="14.00">Pass</text>
<text text-anchor="middle" x="367.54" y="-15.67" font-family="Times,serif" font-size="14.00">(compound)</text>
</g>
<!-- FirstDelim&#45;&gt;PassNC -->
<g id="edge5" class="edge">
<title>FirstDelim&#45;&gt;PassNC</title>
<path fill="none" stroke="black" d="M205.15,-535.37C176.94,-531.44 142,-522.71 116.54,-503.48 103.55,-493.67 93.8,-478.71 86.89,-464.8"/>
<polygon fill="black" stroke="black" points="89.93,-463.04 82.56,-455.43 83.58,-465.97 89.93,-463.04"/>
<text text-anchor="middle" x="135.04" y="-484.78" font-family="Times,serif" font-size="14.00">(other)</text>
</g>
<!-- LastItem -->
<g id="node6" class="node">
<title>LastItem</title>
<ellipse fill="lightgrey" stroke="black" cx="533.54" cy="-122.74" rx="42.49" ry="18"/>
<text text-anchor="middle" x="533.54" y="-119.04" font-family="Times,serif" font-size="14.00">LastItem</text>
</g>
<!-- FirstDelim&#45;&gt;LastItem -->
<g id="edge2" class="edge">
<title>FirstDelim&#45;&gt;LastItem</title>
<path fill="none" stroke="black" d="M288.44,-526.69C299.62,-521.27 311.04,-513.72 318.54,-503.48 338.28,-476.52 332.54,-463.03 332.54,-429.61 332.54,-429.61 332.54,-429.61 332.54,-223.74 332.54,-191.73 338.34,-178.48 363.54,-158.74 381.82,-144.42 439.72,-134.66 482.9,-129.15"/>
<polygon fill="black" stroke="black" points="483.48,-132.61 492.97,-127.91 482.62,-125.66 483.48,-132.61"/>
<text text-anchor="middle" x="348.54" y="-308.04" font-family="Times,serif" font-size="14.00">&quot;and&quot;</text>
</g>
<!-- SecondItem -->
<g id="node7" class="node">
<title>SecondItem</title>
<ellipse fill="lightgrey" stroke="black" cx="560.54" cy="-428.61" rx="53.09" ry="18"/>
<text text-anchor="middle" x="560.54" y="-424.91" font-family="Times,serif" font-size="14.00">SecondItem</text>
</g>
<!-- FirstDelim&#45;&gt;SecondItem -->
<g id="edge3" class="edge">
<title>FirstDelim&#45;&gt;SecondItem</title>
<path fill="none" stroke="black" d="M287.57,-526.41C343.14,-506.71 453.38,-467.61 515.41,-445.61"/>
<polygon fill="black" stroke="black" points="516.69,-448.88 524.94,-442.23 514.35,-442.28 516.69,-448.88"/>
<text text-anchor="middle" x="456.04" y="-484.78" font-family="Times,serif" font-size="14.00">Comma</text>
</g>
<!-- NthSpacedItem -->
<g id="node8" class="node">
<title>NthSpacedItem</title>
<ellipse fill="lightgrey" stroke="black" cx="169.54" cy="-365.74" rx="65.79" ry="18"/>
<text text-anchor="middle" x="169.54" y="-362.04" font-family="Times,serif" font-size="14.00">NthSpacedItem</text>
</g>
<!-- FirstDelim&#45;&gt;NthSpacedItem -->
<g id="edge4" class="edge">
<title>FirstDelim&#45;&gt;NthSpacedItem</title>
<path fill="none" stroke="black" d="M212.62,-529.16C198.9,-523.93 184.97,-515.86 176.54,-503.48 154.5,-471.1 157.93,-423.76 163.18,-394.13"/>
<polygon fill="black" stroke="black" points="166.66,-394.56 165.15,-384.07 159.79,-393.21 166.66,-394.56"/>
<text text-anchor="middle" x="247.54" y="-492.28" font-family="Times,serif" font-size="14.00">ELEMENT</text>
<text text-anchor="middle" x="247.54" y="-477.28" font-family="Times,serif" font-size="14.00">allow_space_delim = true</text>
</g>
<!-- LastItem&#45;&gt;Fail -->
<g id="edge18" class="edge">
<title>LastItem&#45;&gt;Fail</title>
<path fill="none" stroke="black" d="M545.92,-105.42C554.52,-94.86 566.7,-81.35 579.54,-71.74 596.88,-58.76 618.65,-47.95 636.32,-40.31"/>
<polygon fill="black" stroke="black" points="637.79,-43.49 645.66,-36.39 635.09,-37.03 637.79,-43.49"/>
<text text-anchor="middle" x="598.04" y="-75.54" font-family="Times,serif" font-size="14.00">(other)</text>
</g>
<!-- LastItem&#45;&gt;PassC -->
<g id="edge17" class="edge">
<title>LastItem&#45;&gt;PassC</title>
<path fill="none" stroke="black" d="M509.05,-107.89C483.68,-93.55 443.49,-70.82 412.41,-53.24"/>
<polygon fill="black" stroke="black" points="413.92,-50.08 403.49,-48.2 410.47,-56.17 413.92,-50.08"/>
<text text-anchor="middle" x="501.54" y="-75.54" font-family="Times,serif" font-size="14.00">ELEMENT</text>
</g>
<!-- SecondItem&#45;&gt;Fail -->
<g id="edge7" class="edge">
<title>SecondItem&#45;&gt;Fail</title>
<path fill="none" stroke="black" d="M608.49,-420.51C697.33,-406 878.54,-369.46 878.54,-312.74 878.54,-312.74 878.54,-312.74 878.54,-121.74 878.54,-46.02 763.33,-30.97 703.58,-28.26"/>
<polygon fill="black" stroke="black" points="703.57,-24.75 693.45,-27.89 703.32,-31.75 703.57,-24.75"/>
<text text-anchor="middle" x="897.04" y="-221.04" font-family="Times,serif" font-size="14.00">(other)</text>
</g>
<!-- NthDelim -->
<g id="node9" class="node">
<title>NthDelim</title>
<ellipse fill="lightgrey" stroke="black" cx="560.54" cy="-311.74" rx="46.29" ry="18"/>
<text text-anchor="middle" x="560.54" y="-308.04" font-family="Times,serif" font-size="14.00">NthDelim</text>
</g>
<!-- SecondItem&#45;&gt;NthDelim -->
<g id="edge6" class="edge">
<title>SecondItem&#45;&gt;NthDelim</title>
<path fill="none" stroke="black" d="M560.54,-410.16C560.54,-391.59 560.54,-361.93 560.54,-340.21"/>
<polygon fill="black" stroke="black" points="564.04,-339.97 560.54,-329.97 557.04,-339.97 564.04,-339.97"/>
<text text-anchor="middle" x="592.54" y="-362.04" font-family="Times,serif" font-size="14.00">ELEMENT</text>
</g>
<!-- NthSpacedItem&#45;&gt;PassC -->
<g id="edge9" class="edge">
<title>NthSpacedItem&#45;&gt;PassC</title>
<path fill="none" stroke="black" d="M184.24,-348.11C198.67,-330.03 218.54,-299.62 218.54,-269.24 218.54,-269.24 218.54,-269.24 218.54,-121.74 218.54,-78.43 264.15,-54.31 304.91,-41.4"/>
<polygon fill="black" stroke="black" points="306.01,-44.73 314.59,-38.51 304,-38.02 306.01,-44.73"/>
<text text-anchor="middle" x="237.04" y="-221.04" font-family="Times,serif" font-size="14.00">(other)</text>
</g>
<!-- NthSpacedItem&#45;&gt;NthSpacedItem -->
<g id="edge8" class="edge">
<title>NthSpacedItem&#45;&gt;NthSpacedItem</title>
<path fill="none" stroke="black" d="M224.24,-375.84C240.52,-375.54 253.18,-372.17 253.18,-365.74 253.18,-360.71 245.45,-357.56 234.31,-356.28"/>
<polygon fill="black" stroke="black" points="234.44,-352.78 224.24,-355.64 234,-359.76 234.44,-352.78"/>
<text text-anchor="middle" x="285.18" y="-362.04" font-family="Times,serif" font-size="14.00">ELEMENT</text>
</g>
<!-- NthDelim&#45;&gt;Fail -->
<g id="edge13" class="edge">
<title>NthDelim&#45;&gt;Fail</title>
<path fill="none" stroke="black" d="M606.44,-309.02C631.57,-305.53 661.07,-296.78 678.54,-275.74 729.73,-214.08 701.21,-111.08 681.82,-59.43"/>
<polygon fill="black" stroke="black" points="684.97,-57.87 678.09,-49.81 678.44,-60.4 684.97,-57.87"/>
<text text-anchor="middle" x="784.54" y="-177.54" font-family="Times,serif" font-size="14.00">(other)</text>
<text text-anchor="middle" x="784.54" y="-162.54" font-family="Times,serif" font-size="14.00">allow_commas_only = false</text>
</g>
<!-- NthDelim&#45;&gt;PassC -->
<g id="edge12" class="edge">
<title>NthDelim&#45;&gt;PassC</title>
<path fill="none" stroke="black" d="M527.65,-299.05C485.19,-282.04 412.84,-246.09 379.54,-188.74 357.36,-150.55 357.95,-98.37 361.68,-63.93"/>
<polygon fill="black" stroke="black" points="365.17,-64.19 362.91,-53.84 358.22,-63.34 365.17,-64.19"/>
<text text-anchor="middle" x="455.04" y="-177.54" font-family="Times,serif" font-size="14.00">(other)</text>
<text text-anchor="middle" x="455.04" y="-162.54" font-family="Times,serif" font-size="14.00">allow_commas_only = true</text>
</g>
<!-- NthDelim&#45;&gt;LastItem -->
<g id="edge10" class="edge">
<title>NthDelim&#45;&gt;LastItem</title>
<path fill="none" stroke="black" d="M553.87,-293.88C551.87,-288.19 549.85,-281.77 548.54,-275.74 539.2,-232.82 535.66,-181.8 534.33,-151.13"/>
<polygon fill="black" stroke="black" points="537.82,-150.67 533.94,-140.81 530.82,-150.94 537.82,-150.67"/>
<text text-anchor="middle" x="557.54" y="-221.04" font-family="Times,serif" font-size="14.00">&quot;and&quot;</text>
</g>
<!-- NthItem -->
<g id="node10" class="node">
<title>NthItem</title>
<ellipse fill="lightgrey" stroke="black" cx="626.54" cy="-224.74" rx="40.09" ry="18"/>
<text text-anchor="middle" x="626.54" y="-221.04" font-family="Times,serif" font-size="14.00">NthItem</text>
</g>
<!-- NthDelim&#45;&gt;NthItem -->
<g id="edge11" class="edge">
<title>NthDelim&#45;&gt;NthItem</title>
<path fill="none" stroke="black" d="M595.75,-299.93C607.25,-294.56 618.79,-286.79 625.54,-275.74 629.69,-268.94 631,-260.59 630.96,-252.67"/>
<polygon fill="black" stroke="black" points="634.45,-252.42 630.27,-242.68 627.47,-252.9 634.45,-252.42"/>
<text text-anchor="middle" x="652.04" y="-264.54" font-family="Times,serif" font-size="14.00">Comma</text>
</g>
<!-- NthItem&#45;&gt;Fail -->
<g id="edge16" class="edge">
<title>NthItem&#45;&gt;Fail</title>
<path fill="none" stroke="black" d="M630.19,-206.7C637.14,-174.28 652.38,-103.22 661.42,-61.09"/>
<polygon fill="black" stroke="black" points="664.84,-61.81 663.52,-51.29 658,-60.34 664.84,-61.81"/>
<text text-anchor="middle" x="670.04" y="-119.04" font-family="Times,serif" font-size="14.00">(other)</text>
</g>
<!-- NthItem&#45;&gt;LastItem -->
<g id="edge14" class="edge">
<title>NthItem&#45;&gt;LastItem</title>
<path fill="none" stroke="black" d="M606.97,-208.87C599.64,-202.93 591.42,-195.82 584.54,-188.74 572.44,-176.28 560.38,-161.07 551.03,-148.5"/>
<polygon fill="black" stroke="black" points="553.75,-146.28 545.02,-140.28 548.1,-150.42 553.75,-146.28"/>
<text text-anchor="middle" x="600.54" y="-170.04" font-family="Times,serif" font-size="14.00">&quot;and&quot;</text>
</g>
<!-- NthItem&#45;&gt;NthDelim -->
<g id="edge15" class="edge">
<title>NthItem&#45;&gt;NthDelim</title>
<path fill="none" stroke="black" d="M592.35,-234.62C579.1,-239.92 565.27,-248.15 557.54,-260.74 553.36,-267.54 552.57,-275.89 553.26,-283.81"/>
<polygon fill="black" stroke="black" points="549.83,-284.49 554.88,-293.8 556.74,-283.37 549.83,-284.49"/>
<text text-anchor="middle" x="589.54" y="-264.54" font-family="Times,serif" font-size="14.00">ELEMENT</text>
</g>
</g>
</svg>
