<?xml version="1.0" encoding="UTF-8" standalone="no"?>
<!DOCTYPE svg PUBLIC "-//W3C//DTD SVG 1.1//EN"
 "http://www.w3.org/Graphics/SVG/1.1/DTD/svg11.dtd">
<!-- Generated by graphviz version 2.42.2 (20190918.1233)
 -->
<!-- Title: G Pages: 1 -->
<svg width="499pt" height="620pt"
 viewBox="0.00 0.00 498.54 620.08" xmlns="http://www.w3.org/2000/svg" xmlns:xlink="http://www.w3.org/1999/xlink">
<g id="graph0" class="graph" transform="scale(1 1) rotate(0) translate(4 616.08)">
<title>G</title>
<polygon fill="white" stroke="transparent" points="-4,4 -4,-616.08 494.54,-616.08 494.54,4 -4,4"/>
<!-- Start -->
<g id="node1" class="node">
<title>Start</title>
<ellipse fill="yellow" stroke="black" stroke-width="3" cx="175.54" cy="-584.78" rx="27.1" ry="27.1"/>
<text text-anchor="middle" x="175.54" y="-581.08" font-family="Times,serif" font-size="14.00">Start</text>
</g>
<!-- FirstDelim -->
<g id="node5" class="node">
<title>FirstDelim</title>
<ellipse fill="lightgrey" stroke="black" cx="175.54" cy="-488.48" rx="49.29" ry="18"/>
<text text-anchor="middle" x="175.54" y="-484.78" font-family="Times,serif" font-size="14.00">FirstDelim</text>
</g>
<!-- Start&#45;&gt;FirstDelim -->
<g id="edge1" class="edge">
<title>Start&#45;&gt;FirstDelim</title>
<path fill="none" stroke="black" d="M175.54,-557.26C175.54,-544.58 175.54,-529.41 175.54,-516.65"/>
<polygon fill="black" stroke="black" points="179.04,-516.6 175.54,-506.6 172.04,-516.6 179.04,-516.6"/>
<text text-anchor="middle" x="207.54" y="-528.28" font-family="Times,serif" font-size="14.00">ELEMENT</text>
</g>
<!-- Fail -->
<g id="node2" class="node">
<title>Fail</title>
<ellipse fill="red" stroke="black" stroke-width="3" cx="368.54" cy="-26.87" rx="24.9" ry="24.9"/>
<text text-anchor="middle" x="368.54" y="-23.17" font-family="Times,serif" font-size="14.00">Fail</text>
</g>
<!-- PassNC -->
<g id="node3" class="node">
<title>PassNC</title>
<ellipse fill="lightgreen" stroke="black" stroke-width="3" cx="73.54" cy="-392.61" rx="73.58" ry="26.74"/>
<text text-anchor="middle" x="73.54" y="-396.41" font-family="Times,serif" font-size="14.00">Pass</text>
<text text-anchor="middle" x="73.54" y="-381.41" font-family="Times,serif" font-size="14.00">(not compound)</text>
</g>
<!-- PassC -->
<g id="node4" class="node">
<title>PassC</title>
<ellipse fill="lightgreen" stroke="black" stroke-width="3" cx="197.54" cy="-26.87" rx="58.88" ry="26.74"/>
<text text-anchor="middle" x="197.54" y="-30.67" font-family="Times,serif" font-size="14.00">Pass</text>
<text text-anchor="middle" x="197.54" y="-15.67" font-family="Times,serif" font-size="14.00">(compound)</text>
</g>
<!-- FirstDelim&#45;&gt;PassNC -->
<g id="edge4" class="edge">
<title>FirstDelim&#45;&gt;PassNC</title>
<path fill="none" stroke="black" d="M151.24,-472.64C142.46,-466.82 132.71,-459.78 124.54,-452.48 115.73,-444.61 106.99,-435.25 99.3,-426.33"/>
<polygon fill="black" stroke="black" points="101.95,-424.06 92.83,-418.67 96.6,-428.57 101.95,-424.06"/>
<text text-anchor="middle" x="143.04" y="-441.28" font-family="Times,serif" font-size="14.00">(other)</text>
</g>
<!-- LastItem -->
<g id="node6" class="node">
<title>LastItem</title>
<ellipse fill="lightgrey" stroke="black" cx="221.54" cy="-122.74" rx="42.49" ry="18"/>
<text text-anchor="middle" x="221.54" y="-119.04" font-family="Times,serif" font-size="14.00">LastItem</text>
</g>
<!-- FirstDelim&#45;&gt;LastItem -->
<g id="edge2" class="edge">
<title>FirstDelim&#45;&gt;LastItem</title>
<path fill="none" stroke="black" d="M175.54,-470.18C175.54,-451.34 175.54,-420.34 175.54,-393.61 175.54,-393.61 175.54,-393.61 175.54,-208.74 175.54,-186.23 188.17,-163.97 200.2,-147.88"/>
<polygon fill="black" stroke="black" points="203.28,-149.63 206.73,-139.61 197.78,-145.29 203.28,-149.63"/>
<text text-anchor="middle" x="191.54" y="-293.04" font-family="Times,serif" font-size="14.00">&quot;and&quot;</text>
</g>
<!-- SecondItem -->
<g id="node7" class="node">
<title>SecondItem</title>
<ellipse fill="lightgrey" stroke="black" cx="296.54" cy="-392.61" rx="53.09" ry="18"/>
<text text-anchor="middle" x="296.54" y="-388.91" font-family="Times,serif" font-size="14.00">SecondItem</text>
</g>
<!-- FirstDelim&#45;&gt;SecondItem -->
<g id="edge3" class="edge">
<title>FirstDelim&#45;&gt;SecondItem</title>
<path fill="none" stroke="black" d="M195.52,-471.98C215.28,-456.65 245.71,-433.04 268.01,-415.74"/>
<polygon fill="black" stroke="black" points="270.37,-418.34 276.12,-409.45 266.08,-412.81 270.37,-418.34"/>
<text text-anchor="middle" x="262.04" y="-441.28" font-family="Times,serif" font-size="14.00">Comma</text>
</g>
<!-- LastItem&#45;&gt;Fail -->
<g id="edge14" class="edge">
<title>LastItem&#45;&gt;Fail</title>
<path fill="none" stroke="black" d="M239.39,-106.41C251.89,-96.02 269.21,-82.32 285.54,-71.74 301.97,-61.1 321.24,-50.79 337.08,-42.84"/>
<polygon fill="black" stroke="black" points="339.03,-45.78 346.45,-38.22 335.93,-39.51 339.03,-45.78"/>
<text text-anchor="middle" x="304.04" y="-75.54" font-family="Times,serif" font-size="14.00">(other)</text>
</g>
<!-- LastItem&#45;&gt;PassC -->
<g id="edge13" class="edge">
<title>LastItem&#45;&gt;PassC</title>
<path fill="none" stroke="black" d="M208.23,-105.63C204.35,-100 200.6,-93.41 198.54,-86.74 196.32,-79.55 195.3,-71.64 194.96,-64"/>
<polygon fill="black" stroke="black" points="198.46,-63.84 194.88,-53.86 191.46,-63.89 198.46,-63.84"/>
<text text-anchor="middle" x="230.54" y="-75.54" font-family="Times,serif" font-size="14.00">ELEMENT</text>
</g>
<!-- SecondItem&#45;&gt;Fail -->
<g id="edge6" class="edge">
<title>SecondItem&#45;&gt;Fail</title>
<path fill="none" stroke="black" d="M343.64,-383.94C389.89,-373.41 453.54,-349.5 453.54,-297.74 453.54,-297.74 453.54,-297.74 453.54,-121.74 453.54,-88.06 423.1,-61.08 398.66,-44.83"/>
<polygon fill="black" stroke="black" points="400.31,-41.74 389.99,-39.34 396.56,-47.65 400.31,-41.74"/>
<text text-anchor="middle" x="472.04" y="-206.04" font-family="Times,serif" font-size="14.00">(other)</text>
</g>
<!-- NthDelim -->
<g id="node8" class="node">
<title>NthDelim</title>
<ellipse fill="lightgrey" stroke="black" cx="296.54" cy="-296.74" rx="46.29" ry="18"/>
<text text-anchor="middle" x="296.54" y="-293.04" font-family="Times,serif" font-size="14.00">NthDelim</text>
</g>
<!-- SecondItem&#45;&gt;NthDelim -->
<g id="edge5" class="edge">
<title>SecondItem&#45;&gt;NthDelim</title>
<path fill="none" stroke="black" d="M296.54,-374.39C296.54,-360.63 296.54,-341.08 296.54,-325.17"/>
<polygon fill="black" stroke="black" points="300.04,-324.85 296.54,-314.85 293.04,-324.85 300.04,-324.85"/>
<text text-anchor="middle" x="328.54" y="-336.54" font-family="Times,serif" font-size="14.00">ELEMENT</text>
</g>
<!-- NthDelim&#45;&gt;Fail -->
<g id="edge9" class="edge">
<title>NthDelim&#45;&gt;Fail</title>
<path fill="none" stroke="black" d="M336.16,-287.22C350.84,-282.03 366.18,-273.78 375.54,-260.74 418.48,-200.92 396.81,-108.42 380.7,-59.96"/>
<polygon fill="black" stroke="black" points="383.95,-58.63 377.38,-50.32 377.33,-60.92 383.95,-58.63"/>
<text text-anchor="middle" x="419.04" y="-162.54" font-family="Times,serif" font-size="14.00">(other)</text>
</g>
<!-- NthDelim&#45;&gt;LastItem -->
<g id="edge7" class="edge">
<title>NthDelim&#45;&gt;LastItem</title>
<path fill="none" stroke="black" d="M271.2,-281.43C263.07,-275.84 254.61,-268.82 248.54,-260.74 224.4,-228.64 220.2,-180.72 220.24,-150.89"/>
<polygon fill="black" stroke="black" points="223.74,-150.84 220.41,-140.78 216.74,-150.72 223.74,-150.84"/>
<text text-anchor="middle" x="246.54" y="-206.04" font-family="Times,serif" font-size="14.00">&quot;and&quot;</text>
</g>
<!-- NthItem -->
<g id="node9" class="node">
<title>NthItem</title>
<ellipse fill="lightgrey" stroke="black" cx="317.54" cy="-209.74" rx="40.09" ry="18"/>
<text text-anchor="middle" x="317.54" y="-206.04" font-family="Times,serif" font-size="14.00">NthItem</text>
</g>
<!-- NthDelim&#45;&gt;NthItem -->
<g id="edge8" class="edge">
<title>NthDelim&#45;&gt;NthItem</title>
<path fill="none" stroke="black" d="M272.31,-281.35C259.54,-271.82 247.95,-258.73 255.54,-245.74 260.49,-237.26 268.33,-230.68 276.8,-225.63"/>
<polygon fill="black" stroke="black" points="278.54,-228.66 285.76,-220.9 275.28,-222.47 278.54,-228.66"/>
<text text-anchor="middle" x="278.04" y="-249.54" font-family="Times,serif" font-size="14.00">Comma</text>
</g>
<!-- NthItem&#45;&gt;Fail -->
<g id="edge12" class="edge">
<title>NthItem&#45;&gt;Fail</title>
<path fill="none" stroke="black" d="M322.34,-191.72C330.78,-161.78 348.43,-99.17 359.31,-60.61"/>
<polygon fill="black" stroke="black" points="362.7,-61.46 362.05,-50.88 355.97,-59.56 362.7,-61.46"/>
<text text-anchor="middle" x="364.04" y="-119.04" font-family="Times,serif" font-size="14.00">(other)</text>
</g>
<!-- NthItem&#45;&gt;LastItem -->
<g id="edge10" class="edge">
<title>NthItem&#45;&gt;LastItem</title>
<path fill="none" stroke="black" d="M299.93,-193.15C285.05,-179.97 263.54,-160.92 246.81,-146.12"/>
<polygon fill="black" stroke="black" points="248.84,-143.24 239.04,-139.23 244.2,-148.48 248.84,-143.24"/>
<text text-anchor="middle" x="290.54" y="-162.54" font-family="Times,serif" font-size="14.00">&quot;and&quot;</text>
</g>
<!-- NthItem&#45;&gt;NthDelim -->
<g id="edge11" class="edge">
<title>NthItem&#45;&gt;NthDelim</title>
<path fill="none" stroke="black" d="M313.3,-227.92C310.42,-239.55 306.56,-255.16 303.28,-268.47"/>
<polygon fill="black" stroke="black" points="299.79,-267.99 300.79,-278.54 306.59,-269.67 299.79,-267.99"/>
<text text-anchor="middle" x="339.54" y="-249.54" font-family="Times,serif" font-size="14.00">ELEMENT</text>
</g>
</g>
</svg>
