<?xml version="1.0" encoding="UTF-8" standalone="no"?>
<!DOCTYPE svg PUBLIC "-//W3C//DTD SVG 1.1//EN"
 "http://www.w3.org/Graphics/SVG/1.1/DTD/svg11.dtd">
<!-- Generated by graphviz version 2.42.2 (20190918.1233)
 -->
<!-- Title: G Pages: 1 -->
<svg width="972pt" height="456pt"
 viewBox="0.00 0.00 971.68 456.29" xmlns="http://www.w3.org/2000/svg" xmlns:xlink="http://www.w3.org/1999/xlink">
<g id="graph0" class="graph" transform="scale(1 1) rotate(0) translate(4 452.29)">
<title>G</title>
<polygon fill="white" stroke="transparent" points="-4,4 -4,-452.29 967.68,-452.29 967.68,4 -4,4"/>
<!-- Start -->
<g id="node1" class="node">
<title>Start</title>
<ellipse fill="yellow" stroke="black" stroke-width="3" cx="407.29" cy="-420.99" rx="27.1" ry="27.1"/>
<text text-anchor="middle" x="407.29" y="-417.29" font-family="Times,serif" font-size="14.00">Start</text>
</g>
<!-- Fail -->
<g id="node2" class="node">
<title>Fail</title>
<ellipse fill="red" stroke="black" stroke-width="3" cx="315.29" cy="-128.99" rx="24.9" ry="24.9"/>
<text text-anchor="middle" x="315.29" y="-125.29" font-family="Times,serif" font-size="14.00">Fail</text>
</g>
<!-- Start&#45;&gt;Fail -->
<g id="edge5" class="edge">
<title>Start&#45;&gt;Fail</title>
<path fill="none" stroke="black" d="M387.56,-401.87C363.73,-378.46 325,-335.16 310.29,-288.69 297.07,-246.96 302.18,-195.93 307.96,-163.2"/>
<polygon fill="black" stroke="black" points="311.42,-163.73 309.84,-153.25 304.54,-162.43 311.42,-163.73"/>
<text text-anchor="middle" x="328.79" y="-277.49" font-family="Times,serif" font-size="14.00">(other)</text>
</g>
<!-- Def&#45;Adj -->
<g id="node4" class="node">
<title>Def&#45;Adj</title>
<ellipse fill="lightgrey" stroke="black" cx="154.29" cy="-324.69" rx="40.09" ry="18"/>
<text text-anchor="middle" x="154.29" y="-320.99" font-family="Times,serif" font-size="14.00">Def&#45;Adj</text>
</g>
<!-- Start&#45;&gt;Def&#45;Adj -->
<g id="edge1" class="edge">
<title>Start&#45;&gt;Def&#45;Adj</title>
<path fill="none" stroke="black" d="M380.82,-413.88C349.93,-406.4 297.55,-392.61 254.29,-375.69 231.29,-366.7 206.47,-354.3 187.3,-344.1"/>
<polygon fill="black" stroke="black" points="188.84,-340.96 178.38,-339.29 185.52,-347.12 188.84,-340.96"/>
<text text-anchor="middle" x="262.79" y="-364.49" font-family="Times,serif" font-size="14.00">the</text>
</g>
<!-- IndefS&#45;Adj -->
<g id="node5" class="node">
<title>IndefS&#45;Adj</title>
<ellipse fill="lightgrey" stroke="black" cx="407.29" cy="-324.69" rx="50.09" ry="18"/>
<text text-anchor="middle" x="407.29" y="-320.99" font-family="Times,serif" font-size="14.00">IndefS&#45;Adj</text>
</g>
<!-- Start&#45;&gt;IndefS&#45;Adj -->
<g id="edge2" class="edge">
<title>Start&#45;&gt;IndefS&#45;Adj</title>
<path fill="none" stroke="black" d="M407.29,-393.47C407.29,-380.79 407.29,-365.63 407.29,-352.86"/>
<polygon fill="black" stroke="black" points="410.79,-352.81 407.29,-342.81 403.79,-352.81 410.79,-352.81"/>
<text text-anchor="middle" x="418.29" y="-364.49" font-family="Times,serif" font-size="14.00">a|an</text>
</g>
<!-- IndefP&#45;Noun -->
<g id="node6" class="node">
<title>IndefP&#45;Noun</title>
<ellipse fill="lightgrey" stroke="black" cx="648.29" cy="-324.69" rx="56.59" ry="18"/>
<text text-anchor="middle" x="648.29" y="-320.99" font-family="Times,serif" font-size="14.00">IndefP&#45;Noun</text>
</g>
<!-- Start&#45;&gt;IndefP&#45;Noun -->
<g id="edge3" class="edge">
<title>Start&#45;&gt;IndefP&#45;Noun</title>
<path fill="none" stroke="black" d="M432.62,-410.08C473.49,-394.08 554.47,-362.4 604.74,-342.73"/>
<polygon fill="black" stroke="black" points="606.02,-345.99 614.05,-339.09 603.47,-339.47 606.02,-345.99"/>
<text text-anchor="middle" x="613.29" y="-364.49" font-family="Times,serif" font-size="14.00">CompoundAdjective</text>
</g>
<!-- IndefP&#45;AdjPhr -->
<g id="node7" class="node">
<title>IndefP&#45;AdjPhr</title>
<ellipse fill="lightgrey" stroke="black" cx="765.29" cy="-237.69" rx="62.29" ry="18"/>
<text text-anchor="middle" x="765.29" y="-233.99" font-family="Times,serif" font-size="14.00">IndefP&#45;AdjPhr</text>
</g>
<!-- Start&#45;&gt;IndefP&#45;AdjPhr -->
<g id="edge4" class="edge">
<title>Start&#45;&gt;IndefP&#45;AdjPhr</title>
<path fill="none" stroke="black" d="M434.78,-420.05C484.75,-419.19 592.82,-412.77 674.29,-375.69 720.75,-354.54 727.43,-334.83 749.29,-288.69 752.76,-281.36 755.75,-273.08 758.18,-265.4"/>
<polygon fill="black" stroke="black" points="761.54,-266.37 761.03,-255.78 754.83,-264.37 761.54,-266.37"/>
<text text-anchor="middle" x="771.79" y="-320.99" font-family="Times,serif" font-size="14.00">PluralNoun</text>
</g>
<!-- Pass -->
<g id="node3" class="node">
<title>Pass</title>
<ellipse fill="lightgreen" stroke="black" stroke-width="3" cx="466.29" cy="-26.65" rx="26.8" ry="26.8"/>
<text text-anchor="middle" x="466.29" y="-22.95" font-family="Times,serif" font-size="14.00">Pass</text>
</g>
<!-- Def&#45;Adj&#45;&gt;Fail -->
<g id="edge8" class="edge">
<title>Def&#45;Adj&#45;&gt;Fail</title>
<path fill="none" stroke="black" d="M179.97,-310.62C189.23,-304.9 199.15,-297.48 206.29,-288.69 227.15,-263 217.81,-248.39 234.29,-219.69 247.7,-196.33 253.23,-191.68 271.29,-171.69 276.94,-165.43 283.37,-159 289.53,-153.12"/>
<polygon fill="black" stroke="black" points="292.2,-155.42 297.11,-146.03 287.42,-150.31 292.2,-155.42"/>
<text text-anchor="middle" x="252.79" y="-233.99" font-family="Times,serif" font-size="14.00">(other)</text>
</g>
<!-- Def&#45;Noun -->
<g id="node8" class="node">
<title>Def&#45;Noun</title>
<ellipse fill="lightgrey" stroke="black" cx="138.29" cy="-237.69" rx="46.29" ry="18"/>
<text text-anchor="middle" x="138.29" y="-233.99" font-family="Times,serif" font-size="14.00">Def&#45;Noun</text>
</g>
<!-- Def&#45;Adj&#45;&gt;Def&#45;Noun -->
<g id="edge6" class="edge">
<title>Def&#45;Adj&#45;&gt;Def&#45;Noun</title>
<path fill="none" stroke="black" d="M122.5,-313.53C110.88,-308.1 98.96,-300.11 92.29,-288.69 85.94,-277.81 92.89,-267.31 103.15,-258.76"/>
<polygon fill="black" stroke="black" points="105.5,-261.38 111.47,-252.63 101.35,-255.74 105.5,-261.38"/>
<text text-anchor="middle" x="149.29" y="-277.49" font-family="Times,serif" font-size="14.00">CompoundAdjective</text>
</g>
<!-- Def&#45;AdjPhr -->
<g id="node9" class="node">
<title>Def&#45;AdjPhr</title>
<ellipse fill="lightgrey" stroke="black" cx="69.29" cy="-128.99" rx="51.99" ry="18"/>
<text text-anchor="middle" x="69.29" y="-125.29" font-family="Times,serif" font-size="14.00">Def&#45;AdjPhr</text>
</g>
<!-- Def&#45;Adj&#45;&gt;Def&#45;AdjPhr -->
<g id="edge7" class="edge">
<title>Def&#45;Adj&#45;&gt;Def&#45;AdjPhr</title>
<path fill="none" stroke="black" d="M116.67,-317.88C81.6,-310.25 31.22,-293.12 7.29,-255.69 -14.42,-221.73 17.92,-179.09 43.46,-153.22"/>
<polygon fill="black" stroke="black" points="46.06,-155.57 50.76,-146.08 41.17,-150.57 46.06,-155.57"/>
<text text-anchor="middle" x="45.29" y="-241.49" font-family="Times,serif" font-size="14.00">SingularNoun</text>
<text text-anchor="middle" x="45.29" y="-226.49" font-family="Times,serif" font-size="14.00">PluralNoun</text>
</g>
<!-- IndefS&#45;Adj&#45;&gt;Fail -->
<g id="edge15" class="edge">
<title>IndefS&#45;Adj&#45;&gt;Fail</title>
<path fill="none" stroke="black" d="M386.45,-308.14C371.26,-295.66 351.46,-276.78 340.29,-255.69 325.18,-227.18 319.17,-190.63 316.79,-164.3"/>
<polygon fill="black" stroke="black" points="320.26,-163.75 316,-154.05 313.28,-164.29 320.26,-163.75"/>
<text text-anchor="middle" x="358.79" y="-233.99" font-family="Times,serif" font-size="14.00">(other)</text>
</g>
<!-- IndefS&#45;Noun -->
<g id="node10" class="node">
<title>IndefS&#45;Noun</title>
<ellipse fill="lightgrey" stroke="black" cx="443.29" cy="-237.69" rx="56.59" ry="18"/>
<text text-anchor="middle" x="443.29" y="-233.99" font-family="Times,serif" font-size="14.00">IndefS&#45;Noun</text>
</g>
<!-- IndefS&#45;Adj&#45;&gt;IndefS&#45;Noun -->
<g id="edge13" class="edge">
<title>IndefS&#45;Adj&#45;&gt;IndefS&#45;Noun</title>
<path fill="none" stroke="black" d="M404.52,-306.36C403.68,-296.42 403.93,-283.92 408.29,-273.69 410.08,-269.49 412.64,-265.52 415.56,-261.87"/>
<polygon fill="black" stroke="black" points="418.22,-264.15 422.41,-254.42 413.07,-259.41 418.22,-264.15"/>
<text text-anchor="middle" x="465.29" y="-277.49" font-family="Times,serif" font-size="14.00">CompoundAdjective</text>
</g>
<!-- IndefS&#45;AdjPhr -->
<g id="node11" class="node">
<title>IndefS&#45;AdjPhr</title>
<ellipse fill="lightgrey" stroke="black" cx="466.29" cy="-128.99" rx="62.29" ry="18"/>
<text text-anchor="middle" x="466.29" y="-125.29" font-family="Times,serif" font-size="14.00">IndefS&#45;AdjPhr</text>
</g>
<!-- IndefS&#45;Adj&#45;&gt;IndefS&#45;AdjPhr -->
<g id="edge14" class="edge">
<title>IndefS&#45;Adj&#45;&gt;IndefS&#45;AdjPhr</title>
<path fill="none" stroke="black" d="M456.66,-321.73C480.52,-317.98 507.19,-309.06 522.29,-288.69 553.24,-246.91 545.62,-218.16 522.29,-171.69 518.26,-163.67 511.88,-156.8 504.84,-151.09"/>
<polygon fill="black" stroke="black" points="506.52,-147.98 496.38,-144.92 502.4,-153.64 506.52,-147.98"/>
<text text-anchor="middle" x="580.29" y="-233.99" font-family="Times,serif" font-size="14.00">SingularNoun</text>
</g>
<!-- IndefP&#45;Noun&#45;&gt;Fail -->
<g id="edge21" class="edge">
<title>IndefP&#45;Noun&#45;&gt;Fail</title>
<path fill="none" stroke="black" d="M648.25,-306.67C647.33,-284.37 642.67,-245.1 622.29,-219.69 556.54,-137.73 498,-175.83 395.29,-153.69 379.68,-150.33 362.67,-145.47 348.38,-141.02"/>
<polygon fill="black" stroke="black" points="349.09,-137.57 338.5,-137.88 346.97,-144.25 349.09,-137.57"/>
<text text-anchor="middle" x="657.79" y="-233.99" font-family="Times,serif" font-size="14.00">(other)</text>
</g>
<!-- IndefP&#45;Noun&#45;&gt;IndefP&#45;AdjPhr -->
<g id="edge20" class="edge">
<title>IndefP&#45;Noun&#45;&gt;IndefP&#45;AdjPhr</title>
<path fill="none" stroke="black" d="M658.14,-306.62C664.95,-296.03 674.83,-282.75 686.29,-273.69 695.3,-266.57 705.99,-260.57 716.54,-255.67"/>
<polygon fill="black" stroke="black" points="717.98,-258.86 725.74,-251.64 715.17,-252.45 717.98,-258.86"/>
<text text-anchor="middle" x="717.79" y="-277.49" font-family="Times,serif" font-size="14.00">PluralNoun</text>
</g>
<!-- IndefP&#45;AdjPhr&#45;&gt;Pass -->
<g id="edge23" class="edge">
<title>IndefP&#45;AdjPhr&#45;&gt;Pass</title>
<path fill="none" stroke="black" d="M757.64,-219.56C744.36,-191.62 714.44,-136.18 673.29,-104.3 621.54,-64.21 546.69,-43.49 502.61,-34.15"/>
<polygon fill="black" stroke="black" points="503.13,-30.68 492.63,-32.11 501.73,-37.54 503.13,-30.68"/>
<text text-anchor="middle" x="735.79" y="-125.29" font-family="Times,serif" font-size="14.00">(other)</text>
</g>
<!-- IndefP&#45;AdjPhr&#45;&gt;IndefP&#45;AdjPhr -->
<g id="edge22" class="edge">
<title>IndefP&#45;AdjPhr&#45;&gt;IndefP&#45;AdjPhr</title>
<path fill="none" stroke="black" d="M821.64,-245.44C835.42,-244.87 845.68,-242.28 845.68,-237.69 845.68,-234.32 840.15,-232.03 831.75,-230.82"/>
<polygon fill="black" stroke="black" points="831.9,-227.32 821.64,-229.94 831.3,-234.3 831.9,-227.32"/>
<text text-anchor="middle" x="904.68" y="-233.99" font-family="Times,serif" font-size="14.00">PrepAdjectivalPhrase</text>
</g>
<!-- Def&#45;Noun&#45;&gt;Fail -->
<g id="edge10" class="edge">
<title>Def&#45;Noun&#45;&gt;Fail</title>
<path fill="none" stroke="black" d="M141.86,-219.54C145.9,-204.55 154.01,-183.41 169.29,-171.69 204.07,-144.99 224.62,-167.36 266.29,-153.69 272.41,-151.68 278.76,-149.06 284.77,-146.29"/>
<polygon fill="black" stroke="black" points="286.38,-149.4 293.85,-141.9 283.33,-143.1 286.38,-149.4"/>
<text text-anchor="middle" x="187.79" y="-182.99" font-family="Times,serif" font-size="14.00">(other)</text>
</g>
<!-- Def&#45;Noun&#45;&gt;Def&#45;AdjPhr -->
<g id="edge9" class="edge">
<title>Def&#45;Noun&#45;&gt;Def&#45;AdjPhr</title>
<path fill="none" stroke="black" d="M101.81,-226.43C89.66,-221.1 77.42,-213.2 70.29,-201.69 62.19,-188.62 61.67,-171.47 63.31,-157.22"/>
<polygon fill="black" stroke="black" points="66.82,-157.43 64.89,-147.01 59.9,-156.36 66.82,-157.43"/>
<text text-anchor="middle" x="108.29" y="-190.49" font-family="Times,serif" font-size="14.00">SingularNoun</text>
<text text-anchor="middle" x="108.29" y="-175.49" font-family="Times,serif" font-size="14.00">PluralNoun</text>
</g>
<!-- Def&#45;AdjPhr&#45;&gt;Pass -->
<g id="edge12" class="edge">
<title>Def&#45;AdjPhr&#45;&gt;Pass</title>
<path fill="none" stroke="black" d="M109.91,-117.73C187.86,-98.02 357.22,-55.21 430.88,-36.6"/>
<polygon fill="black" stroke="black" points="431.78,-39.98 440.62,-34.13 430.07,-33.19 431.78,-39.98"/>
<text text-anchor="middle" x="309.79" y="-75.1" font-family="Times,serif" font-size="14.00">(other)</text>
</g>
<!-- Def&#45;AdjPhr&#45;&gt;Def&#45;AdjPhr -->
<g id="edge11" class="edge">
<title>Def&#45;AdjPhr&#45;&gt;Def&#45;AdjPhr</title>
<path fill="none" stroke="black" d="M113.72,-138.37C127.98,-138.27 139.28,-135.15 139.28,-128.99 139.28,-124.38 132.92,-121.47 123.73,-120.26"/>
<polygon fill="black" stroke="black" points="123.92,-116.77 113.72,-119.62 123.47,-123.75 123.92,-116.77"/>
<text text-anchor="middle" x="198.28" y="-125.29" font-family="Times,serif" font-size="14.00">PrepAdjectivalPhrase</text>
</g>
<!-- IndefS&#45;Noun&#45;&gt;Fail -->
<g id="edge17" class="edge">
<title>IndefS&#45;Noun&#45;&gt;Fail</title>
<path fill="none" stroke="black" d="M424.12,-220.72C402.32,-202.54 366.56,-172.73 342.02,-152.28"/>
<polygon fill="black" stroke="black" points="344.09,-149.44 334.16,-145.73 339.6,-154.82 344.09,-149.44"/>
<text text-anchor="middle" x="415.79" y="-182.99" font-family="Times,serif" font-size="14.00">(other)</text>
</g>
<!-- IndefS&#45;Noun&#45;&gt;IndefS&#45;AdjPhr -->
<g id="edge16" class="edge">
<title>IndefS&#45;Noun&#45;&gt;IndefS&#45;AdjPhr</title>
<path fill="none" stroke="black" d="M442.23,-219.59C441.86,-206.32 442.29,-187.58 446.29,-171.69 447.6,-166.47 449.6,-161.13 451.83,-156.08"/>
<polygon fill="black" stroke="black" points="455.09,-157.38 456.3,-146.85 448.79,-154.33 455.09,-157.38"/>
<text text-anchor="middle" x="484.29" y="-182.99" font-family="Times,serif" font-size="14.00">SingularNoun</text>
</g>
<!-- IndefS&#45;AdjPhr&#45;&gt;Pass -->
<g id="edge19" class="edge">
<title>IndefS&#45;AdjPhr&#45;&gt;Pass</title>
<path fill="none" stroke="black" d="M466.29,-110.97C466.29,-98.04 466.29,-79.78 466.29,-63.65"/>
<polygon fill="black" stroke="black" points="469.79,-63.44 466.29,-53.44 462.79,-63.44 469.79,-63.44"/>
<text text-anchor="middle" x="484.79" y="-75.1" font-family="Times,serif" font-size="14.00">(other)</text>
</g>
<!-- IndefS&#45;AdjPhr&#45;&gt;IndefS&#45;AdjPhr -->
<g id="edge18" class="edge">
<title>IndefS&#45;AdjPhr&#45;&gt;IndefS&#45;AdjPhr</title>
<path fill="none" stroke="black" d="M519.63,-138.33C534.9,-137.97 546.68,-134.85 546.68,-128.99 546.68,-124.51 539.78,-121.63 529.69,-120.36"/>
<polygon fill="black" stroke="black" points="529.85,-116.87 519.63,-119.65 529.36,-123.85 529.85,-116.87"/>
<text text-anchor="middle" x="605.68" y="-125.29" font-family="Times,serif" font-size="14.00">PrepAdjectivalPhrase</text>
</g>
</g>
</svg>
