<?xml version="1.0" encoding="UTF-8" standalone="no"?>
<!DOCTYPE svg PUBLIC "-//W3C//DTD SVG 1.1//EN"
 "http://www.w3.org/Graphics/SVG/1.1/DTD/svg11.dtd">
<!-- Generated by graphviz version 2.42.2 (20190918.1233)
 -->
<!-- Title: G Pages: 1 -->
<svg width="1811pt" height="364pt"
 viewBox="0.00 0.00 1811.00 364.00" xmlns="http://www.w3.org/2000/svg" xmlns:xlink="http://www.w3.org/1999/xlink">
<g id="graph0" class="graph" transform="scale(1 1) rotate(0) translate(4 360)">
<title>G</title>
<polygon fill="white" stroke="transparent" points="-4,4 -4,-360 1807,-360 1807,4 -4,4"/>
<g id="clust1" class="cluster">
<title>cluster_1</title>
<polygon fill="none" stroke="black" points="8,-8 8,-348 152,-348 152,-8 8,-8"/>
</g>
<g id="clust2" class="cluster">
<title>cluster_2</title>
<polygon fill="none" stroke="black" points="160,-80 160,-348 422,-348 422,-80 160,-80"/>
</g>
<g id="clust3" class="cluster">
<title>cluster_3</title>
<polygon fill="none" stroke="black" points="430,-80 430,-348 688,-348 688,-80 430,-80"/>
</g>
<g id="clust4" class="cluster">
<title>cluster_4</title>
<polygon fill="none" stroke="black" points="696,-152 696,-348 1100,-348 1100,-152 696,-152"/>
</g>
<g id="clust5" class="cluster">
<title>cluster_5</title>
<polygon fill="none" stroke="black" points="1108,-152 1108,-348 1393,-348 1393,-152 1108,-152"/>
</g>
<g id="clust6" class="cluster">
<title>cluster_6</title>
<polygon fill="none" stroke="black" points="1401,-152 1401,-348 1795,-348 1795,-152 1401,-152"/>
</g>
<!-- 1&#45;eat -->
<g id="node1" class="node">
<title>1&#45;eat</title>
<ellipse fill="lightgrey" stroke="black" cx="80" cy="-322" rx="27" ry="18"/>
<text text-anchor="middle" x="80" y="-318.3" font-family="Times,serif" font-size="14.00">eat</text>
</g>
<!-- 1&#45;the&#45;sandwich -->
<g id="node2" class="node">
<title>1&#45;the&#45;sandwich</title>
<ellipse fill="lightgrey" stroke="black" cx="80" cy="-250" rx="57.39" ry="18"/>
<text text-anchor="middle" x="80" y="-246.3" font-family="Times,serif" font-size="14.00">the sandwich</text>
</g>
<!-- 1&#45;eat&#45;&gt;1&#45;the&#45;sandwich -->
<g id="edge1" class="edge">
<title>1&#45;eat&#45;&gt;1&#45;the&#45;sandwich</title>
<path fill="none" stroke="black" d="M80,-303.7C80,-295.98 80,-286.71 80,-278.11"/>
<polygon fill="black" stroke="black" points="83.5,-278.1 80,-268.1 76.5,-278.1 83.5,-278.1"/>
</g>
<!-- 1&#45;that&#45;you&#45;made -->
<g id="node3" class="node">
<title>1&#45;that&#45;you&#45;made</title>
<ellipse fill="lightgrey" stroke="black" cx="80" cy="-178" rx="61.99" ry="18"/>
<text text-anchor="middle" x="80" y="-174.3" font-family="Times,serif" font-size="14.00">that you made</text>
</g>
<!-- 1&#45;the&#45;sandwich&#45;&gt;1&#45;that&#45;you&#45;made -->
<g id="edge2" class="edge">
<title>1&#45;the&#45;sandwich&#45;&gt;1&#45;that&#45;you&#45;made</title>
<path fill="none" stroke="black" d="M80,-231.7C80,-223.98 80,-214.71 80,-206.11"/>
<polygon fill="black" stroke="black" points="83.5,-206.1 80,-196.1 76.5,-206.1 83.5,-206.1"/>
</g>
<!-- 1&#45;at&#45;the&#45;table -->
<g id="node4" class="node">
<title>1&#45;at&#45;the&#45;table</title>
<ellipse fill="lightgrey" stroke="black" cx="80" cy="-106" rx="50.09" ry="18"/>
<text text-anchor="middle" x="80" y="-102.3" font-family="Times,serif" font-size="14.00">at the table</text>
</g>
<!-- 1&#45;that&#45;you&#45;made&#45;&gt;1&#45;at&#45;the&#45;table -->
<g id="edge3" class="edge">
<title>1&#45;that&#45;you&#45;made&#45;&gt;1&#45;at&#45;the&#45;table</title>
<path fill="none" stroke="black" d="M80,-159.7C80,-151.98 80,-142.71 80,-134.11"/>
<polygon fill="black" stroke="black" points="83.5,-134.1 80,-124.1 76.5,-134.1 83.5,-134.1"/>
</g>
<!-- 1&#45;in&#45;the&#45;cafeteria -->
<g id="node5" class="node">
<title>1&#45;in&#45;the&#45;cafeteria</title>
<ellipse fill="lightgrey" stroke="black" cx="80" cy="-34" rx="63.89" ry="18"/>
<text text-anchor="middle" x="80" y="-30.3" font-family="Times,serif" font-size="14.00">in the cafeteria</text>
</g>
<!-- 1&#45;at&#45;the&#45;table&#45;&gt;1&#45;in&#45;the&#45;cafeteria -->
<g id="edge4" class="edge">
<title>1&#45;at&#45;the&#45;table&#45;&gt;1&#45;in&#45;the&#45;cafeteria</title>
<path fill="none" stroke="black" d="M80,-87.7C80,-79.98 80,-70.71 80,-62.11"/>
<polygon fill="black" stroke="black" points="83.5,-62.1 80,-52.1 76.5,-62.1 83.5,-62.1"/>
</g>
<!-- 2&#45;eat -->
<g id="node6" class="node">
<title>2&#45;eat</title>
<ellipse fill="lightgrey" stroke="black" cx="290" cy="-322" rx="27" ry="18"/>
<text text-anchor="middle" x="290" y="-318.3" font-family="Times,serif" font-size="14.00">eat</text>
</g>
<!-- 2&#45;the&#45;sandwich -->
<g id="node7" class="node">
<title>2&#45;the&#45;sandwich</title>
<ellipse fill="lightgrey" stroke="black" cx="290" cy="-250" rx="57.39" ry="18"/>
<text text-anchor="middle" x="290" y="-246.3" font-family="Times,serif" font-size="14.00">the sandwich</text>
</g>
<!-- 2&#45;eat&#45;&gt;2&#45;the&#45;sandwich -->
<g id="edge5" class="edge">
<title>2&#45;eat&#45;&gt;2&#45;the&#45;sandwich</title>
<path fill="none" stroke="black" d="M290,-303.7C290,-295.98 290,-286.71 290,-278.11"/>
<polygon fill="black" stroke="black" points="293.5,-278.1 290,-268.1 286.5,-278.1 293.5,-278.1"/>
</g>
<!-- 2&#45;that&#45;you&#45;made -->
<g id="node8" class="node">
<title>2&#45;that&#45;you&#45;made</title>
<ellipse fill="lightgrey" stroke="black" cx="290" cy="-178" rx="61.99" ry="18"/>
<text text-anchor="middle" x="290" y="-174.3" font-family="Times,serif" font-size="14.00">that you made</text>
</g>
<!-- 2&#45;the&#45;sandwich&#45;&gt;2&#45;that&#45;you&#45;made -->
<g id="edge6" class="edge">
<title>2&#45;the&#45;sandwich&#45;&gt;2&#45;that&#45;you&#45;made</title>
<path fill="none" stroke="black" d="M290,-231.7C290,-223.98 290,-214.71 290,-206.11"/>
<polygon fill="black" stroke="black" points="293.5,-206.1 290,-196.1 286.5,-206.1 293.5,-206.1"/>
</g>
<!-- 2&#45;at&#45;the&#45;table -->
<g id="node9" class="node">
<title>2&#45;at&#45;the&#45;table</title>
<ellipse fill="lightgrey" stroke="black" cx="218" cy="-106" rx="50.09" ry="18"/>
<text text-anchor="middle" x="218" y="-102.3" font-family="Times,serif" font-size="14.00">at the table</text>
</g>
<!-- 2&#45;that&#45;you&#45;made&#45;&gt;2&#45;at&#45;the&#45;table -->
<g id="edge7" class="edge">
<title>2&#45;that&#45;you&#45;made&#45;&gt;2&#45;at&#45;the&#45;table</title>
<path fill="none" stroke="black" d="M272.94,-160.41C263.79,-151.52 252.37,-140.41 242.31,-130.63"/>
<polygon fill="black" stroke="black" points="244.55,-127.93 234.94,-123.47 239.67,-132.95 244.55,-127.93"/>
</g>
<!-- 2&#45;in&#45;the&#45;cafeteria -->
<g id="node10" class="node">
<title>2&#45;in&#45;the&#45;cafeteria</title>
<ellipse fill="lightgrey" stroke="black" cx="350" cy="-106" rx="63.89" ry="18"/>
<text text-anchor="middle" x="350" y="-102.3" font-family="Times,serif" font-size="14.00">in the cafeteria</text>
</g>
<!-- 2&#45;that&#45;you&#45;made&#45;&gt;2&#45;in&#45;the&#45;cafeteria -->
<g id="edge8" class="edge">
<title>2&#45;that&#45;you&#45;made&#45;&gt;2&#45;in&#45;the&#45;cafeteria</title>
<path fill="none" stroke="black" d="M304.22,-160.41C311.58,-151.82 320.72,-141.16 328.89,-131.63"/>
<polygon fill="black" stroke="black" points="331.62,-133.83 335.47,-123.96 326.3,-129.27 331.62,-133.83"/>
</g>
<!-- 3&#45;eat -->
<g id="node11" class="node">
<title>3&#45;eat</title>
<ellipse fill="lightgrey" stroke="black" cx="561" cy="-322" rx="27" ry="18"/>
<text text-anchor="middle" x="561" y="-318.3" font-family="Times,serif" font-size="14.00">eat</text>
</g>
<!-- 3&#45;the&#45;sandwich -->
<g id="node12" class="node">
<title>3&#45;the&#45;sandwich</title>
<ellipse fill="lightgrey" stroke="black" cx="561" cy="-250" rx="57.39" ry="18"/>
<text text-anchor="middle" x="561" y="-246.3" font-family="Times,serif" font-size="14.00">the sandwich</text>
</g>
<!-- 3&#45;eat&#45;&gt;3&#45;the&#45;sandwich -->
<g id="edge9" class="edge">
<title>3&#45;eat&#45;&gt;3&#45;the&#45;sandwich</title>
<path fill="none" stroke="black" d="M561,-303.7C561,-295.98 561,-286.71 561,-278.11"/>
<polygon fill="black" stroke="black" points="564.5,-278.1 561,-268.1 557.5,-278.1 564.5,-278.1"/>
</g>
<!-- 3&#45;that&#45;you&#45;made -->
<g id="node13" class="node">
<title>3&#45;that&#45;you&#45;made</title>
<ellipse fill="lightgrey" stroke="black" cx="500" cy="-178" rx="61.99" ry="18"/>
<text text-anchor="middle" x="500" y="-174.3" font-family="Times,serif" font-size="14.00">that you made</text>
</g>
<!-- 3&#45;the&#45;sandwich&#45;&gt;3&#45;that&#45;you&#45;made -->
<g id="edge10" class="edge">
<title>3&#45;the&#45;sandwich&#45;&gt;3&#45;that&#45;you&#45;made</title>
<path fill="none" stroke="black" d="M546.54,-232.41C539.06,-223.82 529.77,-213.16 521.46,-203.63"/>
<polygon fill="black" stroke="black" points="523.98,-201.2 514.78,-195.96 518.71,-205.79 523.98,-201.2"/>
</g>
<!-- 3&#45;at&#45;the&#45;table -->
<g id="node14" class="node">
<title>3&#45;at&#45;the&#45;table</title>
<ellipse fill="lightgrey" stroke="black" cx="630" cy="-178" rx="50.09" ry="18"/>
<text text-anchor="middle" x="630" y="-174.3" font-family="Times,serif" font-size="14.00">at the table</text>
</g>
<!-- 3&#45;the&#45;sandwich&#45;&gt;3&#45;at&#45;the&#45;table -->
<g id="edge11" class="edge">
<title>3&#45;the&#45;sandwich&#45;&gt;3&#45;at&#45;the&#45;table</title>
<path fill="none" stroke="black" d="M577.35,-232.41C586.12,-223.52 597.07,-212.41 606.71,-202.63"/>
<polygon fill="black" stroke="black" points="609.24,-205.05 613.77,-195.47 604.25,-200.13 609.24,-205.05"/>
</g>
<!-- 3&#45;in&#45;the&#45;cafeteria -->
<g id="node15" class="node">
<title>3&#45;in&#45;the&#45;cafeteria</title>
<ellipse fill="lightgrey" stroke="black" cx="616" cy="-106" rx="63.89" ry="18"/>
<text text-anchor="middle" x="616" y="-102.3" font-family="Times,serif" font-size="14.00">in the cafeteria</text>
</g>
<!-- 3&#45;at&#45;the&#45;table&#45;&gt;3&#45;in&#45;the&#45;cafeteria -->
<g id="edge12" class="edge">
<title>3&#45;at&#45;the&#45;table&#45;&gt;3&#45;in&#45;the&#45;cafeteria</title>
<path fill="none" stroke="black" d="M626.54,-159.7C625,-151.98 623.14,-142.71 621.42,-134.11"/>
<polygon fill="black" stroke="black" points="624.81,-133.22 619.42,-124.1 617.95,-134.6 624.81,-133.22"/>
</g>
<!-- 4&#45;eat -->
<g id="node16" class="node">
<title>4&#45;eat</title>
<ellipse fill="lightgrey" stroke="black" cx="896" cy="-322" rx="27" ry="18"/>
<text text-anchor="middle" x="896" y="-318.3" font-family="Times,serif" font-size="14.00">eat</text>
</g>
<!-- 4&#45;the&#45;sandwich -->
<g id="node17" class="node">
<title>4&#45;the&#45;sandwich</title>
<ellipse fill="lightgrey" stroke="black" cx="896" cy="-250" rx="57.39" ry="18"/>
<text text-anchor="middle" x="896" y="-246.3" font-family="Times,serif" font-size="14.00">the sandwich</text>
</g>
<!-- 4&#45;eat&#45;&gt;4&#45;the&#45;sandwich -->
<g id="edge13" class="edge">
<title>4&#45;eat&#45;&gt;4&#45;the&#45;sandwich</title>
<path fill="none" stroke="black" d="M896,-303.7C896,-295.98 896,-286.71 896,-278.11"/>
<polygon fill="black" stroke="black" points="899.5,-278.1 896,-268.1 892.5,-278.1 899.5,-278.1"/>
</g>
<!-- 4&#45;that&#45;you&#45;made -->
<g id="node18" class="node">
<title>4&#45;that&#45;you&#45;made</title>
<ellipse fill="lightgrey" stroke="black" cx="766" cy="-178" rx="61.99" ry="18"/>
<text text-anchor="middle" x="766" y="-174.3" font-family="Times,serif" font-size="14.00">that you made</text>
</g>
<!-- 4&#45;the&#45;sandwich&#45;&gt;4&#45;that&#45;you&#45;made -->
<g id="edge14" class="edge">
<title>4&#45;the&#45;sandwich&#45;&gt;4&#45;that&#45;you&#45;made</title>
<path fill="none" stroke="black" d="M868.43,-234.15C849.34,-223.88 823.72,-210.08 802.88,-198.86"/>
<polygon fill="black" stroke="black" points="804.44,-195.72 793.98,-194.07 801.12,-201.89 804.44,-195.72"/>
</g>
<!-- 4&#45;at&#45;the&#45;table -->
<g id="node19" class="node">
<title>4&#45;at&#45;the&#45;table</title>
<ellipse fill="lightgrey" stroke="black" cx="896" cy="-178" rx="50.09" ry="18"/>
<text text-anchor="middle" x="896" y="-174.3" font-family="Times,serif" font-size="14.00">at the table</text>
</g>
<!-- 4&#45;the&#45;sandwich&#45;&gt;4&#45;at&#45;the&#45;table -->
<g id="edge15" class="edge">
<title>4&#45;the&#45;sandwich&#45;&gt;4&#45;at&#45;the&#45;table</title>
<path fill="none" stroke="black" d="M896,-231.7C896,-223.98 896,-214.71 896,-206.11"/>
<polygon fill="black" stroke="black" points="899.5,-206.1 896,-196.1 892.5,-206.1 899.5,-206.1"/>
</g>
<!-- 4&#45;in&#45;the&#45;cafeteria -->
<g id="node20" class="node">
<title>4&#45;in&#45;the&#45;cafeteria</title>
<ellipse fill="lightgrey" stroke="black" cx="1028" cy="-178" rx="63.89" ry="18"/>
<text text-anchor="middle" x="1028" y="-174.3" font-family="Times,serif" font-size="14.00">in the cafeteria</text>
</g>
<!-- 4&#45;the&#45;sandwich&#45;&gt;4&#45;in&#45;the&#45;cafeteria -->
<g id="edge16" class="edge">
<title>4&#45;the&#45;sandwich&#45;&gt;4&#45;in&#45;the&#45;cafeteria</title>
<path fill="none" stroke="black" d="M923.99,-234.15C943.24,-223.95 969.04,-210.27 990.12,-199.09"/>
<polygon fill="black" stroke="black" points="991.94,-202.08 999.13,-194.31 988.66,-195.9 991.94,-202.08"/>
</g>
<!-- 5&#45;eat -->
<g id="node21" class="node">
<title>5&#45;eat</title>
<ellipse fill="lightgrey" stroke="black" cx="1249" cy="-322" rx="27" ry="18"/>
<text text-anchor="middle" x="1249" y="-318.3" font-family="Times,serif" font-size="14.00">eat</text>
</g>
<!-- 5&#45;the&#45;sandwich -->
<g id="node22" class="node">
<title>5&#45;the&#45;sandwich</title>
<ellipse fill="lightgrey" stroke="black" cx="1182" cy="-250" rx="57.39" ry="18"/>
<text text-anchor="middle" x="1182" y="-246.3" font-family="Times,serif" font-size="14.00">the sandwich</text>
</g>
<!-- 5&#45;eat&#45;&gt;5&#45;the&#45;sandwich -->
<g id="edge17" class="edge">
<title>5&#45;eat&#45;&gt;5&#45;the&#45;sandwich</title>
<path fill="none" stroke="black" d="M1235.12,-306.5C1226.36,-297.34 1214.84,-285.31 1204.76,-274.78"/>
<polygon fill="black" stroke="black" points="1207.19,-272.25 1197.74,-267.45 1202.13,-277.09 1207.19,-272.25"/>
</g>
<!-- 5&#45;at&#45;the&#45;table -->
<g id="node24" class="node">
<title>5&#45;at&#45;the&#45;table</title>
<ellipse fill="lightgrey" stroke="black" cx="1316" cy="-250" rx="50.09" ry="18"/>
<text text-anchor="middle" x="1316" y="-246.3" font-family="Times,serif" font-size="14.00">at the table</text>
</g>
<!-- 5&#45;eat&#45;&gt;5&#45;at&#45;the&#45;table -->
<g id="edge19" class="edge">
<title>5&#45;eat&#45;&gt;5&#45;at&#45;the&#45;table</title>
<path fill="none" stroke="black" d="M1262.88,-306.5C1271.7,-297.28 1283.33,-285.14 1293.45,-274.56"/>
<polygon fill="black" stroke="black" points="1296.11,-276.84 1300.5,-267.2 1291.05,-272 1296.11,-276.84"/>
</g>
<!-- 5&#45;that&#45;you&#45;made -->
<g id="node23" class="node">
<title>5&#45;that&#45;you&#45;made</title>
<ellipse fill="lightgrey" stroke="black" cx="1178" cy="-178" rx="61.99" ry="18"/>
<text text-anchor="middle" x="1178" y="-174.3" font-family="Times,serif" font-size="14.00">that you made</text>
</g>
<!-- 5&#45;the&#45;sandwich&#45;&gt;5&#45;that&#45;you&#45;made -->
<g id="edge18" class="edge">
<title>5&#45;the&#45;sandwich&#45;&gt;5&#45;that&#45;you&#45;made</title>
<path fill="none" stroke="black" d="M1181.01,-231.7C1180.57,-223.98 1180.04,-214.71 1179.55,-206.11"/>
<polygon fill="black" stroke="black" points="1183.04,-205.89 1178.98,-196.1 1176.05,-206.29 1183.04,-205.89"/>
</g>
<!-- 5&#45;in&#45;the&#45;cafeteria -->
<g id="node25" class="node">
<title>5&#45;in&#45;the&#45;cafeteria</title>
<ellipse fill="lightgrey" stroke="black" cx="1321" cy="-178" rx="63.89" ry="18"/>
<text text-anchor="middle" x="1321" y="-174.3" font-family="Times,serif" font-size="14.00">in the cafeteria</text>
</g>
<!-- 5&#45;at&#45;the&#45;table&#45;&gt;5&#45;in&#45;the&#45;cafeteria -->
<g id="edge20" class="edge">
<title>5&#45;at&#45;the&#45;table&#45;&gt;5&#45;in&#45;the&#45;cafeteria</title>
<path fill="none" stroke="black" d="M1317.24,-231.7C1317.79,-223.98 1318.45,-214.71 1319.06,-206.11"/>
<polygon fill="black" stroke="black" points="1322.56,-206.33 1319.78,-196.1 1315.57,-205.83 1322.56,-206.33"/>
</g>
<!-- 6&#45;eat -->
<g id="node26" class="node">
<title>6&#45;eat</title>
<ellipse fill="lightgrey" stroke="black" cx="1591" cy="-322" rx="27" ry="18"/>
<text text-anchor="middle" x="1591" y="-318.3" font-family="Times,serif" font-size="14.00">eat</text>
</g>
<!-- 6&#45;the&#45;sandwich -->
<g id="node27" class="node">
<title>6&#45;the&#45;sandwich</title>
<ellipse fill="lightgrey" stroke="black" cx="1466" cy="-250" rx="57.39" ry="18"/>
<text text-anchor="middle" x="1466" y="-246.3" font-family="Times,serif" font-size="14.00">the sandwich</text>
</g>
<!-- 6&#45;eat&#45;&gt;6&#45;the&#45;sandwich -->
<g id="edge21" class="edge">
<title>6&#45;eat&#45;&gt;6&#45;the&#45;sandwich</title>
<path fill="none" stroke="black" d="M1570.92,-309.75C1552.36,-299.36 1524.35,-283.67 1501.93,-271.12"/>
<polygon fill="black" stroke="black" points="1503.46,-267.97 1493.03,-266.14 1500.04,-274.08 1503.46,-267.97"/>
</g>
<!-- 6&#45;at&#45;the&#45;table -->
<g id="node29" class="node">
<title>6&#45;at&#45;the&#45;table</title>
<ellipse fill="lightgrey" stroke="black" cx="1591" cy="-250" rx="50.09" ry="18"/>
<text text-anchor="middle" x="1591" y="-246.3" font-family="Times,serif" font-size="14.00">at the table</text>
</g>
<!-- 6&#45;eat&#45;&gt;6&#45;at&#45;the&#45;table -->
<g id="edge23" class="edge">
<title>6&#45;eat&#45;&gt;6&#45;at&#45;the&#45;table</title>
<path fill="none" stroke="black" d="M1591,-303.7C1591,-295.98 1591,-286.71 1591,-278.11"/>
<polygon fill="black" stroke="black" points="1594.5,-278.1 1591,-268.1 1587.5,-278.1 1594.5,-278.1"/>
</g>
<!-- 6&#45;in&#45;the&#45;cafeteria -->
<g id="node30" class="node">
<title>6&#45;in&#45;the&#45;cafeteria</title>
<ellipse fill="lightgrey" stroke="black" cx="1723" cy="-250" rx="63.89" ry="18"/>
<text text-anchor="middle" x="1723" y="-246.3" font-family="Times,serif" font-size="14.00">in the cafeteria</text>
</g>
<!-- 6&#45;eat&#45;&gt;6&#45;in&#45;the&#45;cafeteria -->
<g id="edge24" class="edge">
<title>6&#45;eat&#45;&gt;6&#45;in&#45;the&#45;cafeteria</title>
<path fill="none" stroke="black" d="M1611.62,-310.06C1631.3,-299.63 1661.4,-283.67 1685.35,-270.97"/>
<polygon fill="black" stroke="black" points="1687,-274.05 1694.2,-266.28 1683.72,-267.87 1687,-274.05"/>
</g>
<!-- 6&#45;that&#45;you&#45;made -->
<g id="node28" class="node">
<title>6&#45;that&#45;you&#45;made</title>
<ellipse fill="lightgrey" stroke="black" cx="1471" cy="-178" rx="61.99" ry="18"/>
<text text-anchor="middle" x="1471" y="-174.3" font-family="Times,serif" font-size="14.00">that you made</text>
</g>
<!-- 6&#45;the&#45;sandwich&#45;&gt;6&#45;that&#45;you&#45;made -->
<g id="edge22" class="edge">
<title>6&#45;the&#45;sandwich&#45;&gt;6&#45;that&#45;you&#45;made</title>
<path fill="none" stroke="black" d="M1467.24,-231.7C1467.79,-223.98 1468.45,-214.71 1469.06,-206.11"/>
<polygon fill="black" stroke="black" points="1472.56,-206.33 1469.78,-196.1 1465.57,-205.83 1472.56,-206.33"/>
</g>
</g>
</svg>
